<svg xmlns="http://www.w3.org/2000/svg" width="128" height="128" viewBox="0 0 128 128" role="img" aria-label="Blackspot logo">
  <defs>
    <linearGradient id="g" x1="0" y1="0" x2="1" y2="1">
      <stop offset="0%" stop-color="#10b981"/>
      <stop offset="100%" stop-color="#059669"/>
    </linearGradient>
  </defs>
  <circle cx="64" cy="64" r="56" fill="url(#g)"/>
  <g fill="#fff">
    <circle cx="64" cy="64" r="18"/>
    <path d="M64 20a6 6 0 0 1 6 6v12a6 6 0 0 1-12 0V26a6 6 0 0 1 6-6zm0 64a6 6 0 0 1 6 6v12a6 6 0 0 1-12 0V90a6 6 0 0 1 6-6zM20 64a6 6 0 0 1 6-6h12a6 6 0 0 1 0 12H26a6 6 0 0 1-6-6zm64 0a6 6 0 0 1 6-6h12a6 6 0 0 1 0 12H90a6 6 0 0 1-6-6z"/>
  </g>
</svg>

